<?xml version="1.0" encoding="UTF-8"?>
<svg width="23px" height="23px" viewBox="0 0 23 23" version="1.1" xmlns="http://www.w3.org/2000/svg" xmlns:xlink="http://www.w3.org/1999/xlink">
    <title>Group 6</title>
    <defs>
        <polygon id="path-1" points="0 0.3 13.8 0.3 13.8 8.7 0 8.7"></polygon>
    </defs>
    <g id="Pages" stroke="none" stroke-width="1" fill="none" fill-rule="evenodd">
        <g id="Group-6">
            <rect id="Rectangle" fill="#D7EFF9" x="0" y="0" width="22.8" height="22.8" rx="11.4"></rect>
            <g id="Group-3" transform="translate(4.800000, 6.900000)">
                <mask id="mask-2" fill="white">
                    <use xlink:href="#path-1"></use>
                </mask>
                <g id="Clip-2"></g>
                <path d="M7.31777344,8.7 C7.33767832,8.69715902 7.3575293,8.69236488 7.37750156,8.69177756 C7.86936914,8.67735415 8.35767891,8.62644878 8.84204004,8.53943024 C9.30261504,8.45670049 9.7555084,8.34412683 10.1864619,8.15491512 C10.4307246,8.04765463 10.664233,7.92149073 10.8520828,7.72449366 C10.9988695,7.57056195 11.0686646,7.39492683 11.0348115,7.17289366 C10.9831424,6.83387512 10.9487232,6.4921522 10.9069998,6.15157659 C10.8561393,5.73657561 10.8058582,5.32149268 10.7540678,4.90660098 C10.7418715,4.80884683 10.7393109,4.8083278 10.644126,4.83792585 C9.64867969,5.14744195 8.65290996,5.45593366 7.65811055,5.76755317 C7.17978691,5.91737366 6.70020996,5.93433756 6.2196627,5.78835512 C5.63717871,5.61140878 5.05647363,5.42850732 4.4751082,5.24777756 C4.03318477,5.11038634 3.59149043,4.97223024 3.14958047,4.83477073 C3.06381562,4.80809561 3.05978613,4.80988488 3.04713164,4.89981268 C3.03066328,5.01681171 3.01732148,5.13426146 3.00283418,5.25153366 C2.92685332,5.86720585 2.85031992,6.4827961 2.77549805,7.09860488 C2.76076816,7.21971512 2.73571523,7.34098927 2.78084824,7.4627278 C2.8331373,7.60377951 2.92472402,7.71378537 3.03601348,7.80854829 C3.28952109,8.02443512 3.58693535,8.15813854 3.89584512,8.26598634 C4.61628867,8.51749463 5.36298457,8.6270361 6.12000352,8.6772722 C6.24071309,8.68528976 6.36149004,8.69243317 6.48222656,8.7 L7.31777344,8.7 Z M6.75175781,0.3 L7.04824219,0.3 C7.21563457,0.321252683 7.3782293,0.362310244 7.53895078,0.414308293 C7.78896797,0.495207805 8.04050801,0.571299512 8.29141465,0.649385366 C9.98134863,1.17528 11.6709188,1.70234927 13.3616613,2.22556683 C13.5773807,2.29232976 13.7329271,2.41204683 13.8,2.63560976 L13.8,2.86780488 C13.7325902,3.0947278 13.5739037,3.21464976 13.3556643,3.28074341 C12.7320902,3.4696 12.110632,3.66561366 11.4884865,3.85933268 C10.1390918,4.2795239 8.7895623,4.69930537 7.44059883,5.12093073 C7.08213574,5.23298537 6.72555937,5.23537561 6.3673793,5.12276098 C5.99867402,5.00684098 5.62945664,4.89260098 5.26045488,4.77766439 C4.26070957,4.46624976 3.26080254,4.15534049 2.26154238,3.84231415 C2.19751523,3.82224976 2.15146582,3.83485659 2.10253242,3.87768976 C1.9056668,4.0500878 1.78707305,4.26470439 1.74762715,4.52560976 C1.73958164,4.57885073 1.7504707,4.61332488 1.79484902,4.64758049 C2.15288086,4.92387902 2.1765457,5.39970146 1.84572305,5.70566634 C1.79491641,5.75266537 1.78455293,5.79283512 1.79913457,5.8583278 C1.97389863,6.64358439 2.14592695,7.42946927 2.31835957,8.2152722 C2.37285879,8.46363902 2.28573281,8.61938732 2.0484375,8.7 L0.714257812,8.7 C0.47825625,8.62424976 0.387235547,8.47070049 0.440724023,8.22461463 C0.612550195,7.43405854 0.785966602,6.64387122 0.961323633,5.85412098 C0.975420117,5.79064976 0.964867969,5.75175024 0.915880664,5.70741463 C0.588238477,5.41084683 0.607253906,4.92021854 0.957307617,4.65296195 C1.01307363,4.61040195 1.03955508,4.56491902 1.04530957,4.49677659 C1.07180449,4.18269854 1.18512891,3.90160585 1.3663752,3.64720195 C1.41320625,3.58146341 1.41266719,3.5795922 1.33350586,3.55491122 C1.03747969,3.46260683 0.742625977,3.36608195 0.444834375,3.28004683 C0.225611133,3.21669854 0.0677601563,3.09453659 0,2.86780488 L0,2.63560976 C0.0693908203,2.40278634 0.23585332,2.28831415 0.457785352,2.21978927 C2.05439414,1.72677073 3.648375,1.2249561 5.24556328,0.733918049 C5.74489687,0.580396098 6.23336836,0.386185366 6.75175781,0.3 L6.75175781,0.3 Z" id="Fill-1" fill="#1D1D1B" mask="url(#mask-2)"></path>
            </g>
        </g>
    </g>
</svg>