<?xml version="1.0" encoding="UTF-8"?>
<svg width="102px" height="25px" viewBox="0 0 102 25" version="1.1" xmlns="http://www.w3.org/2000/svg" xmlns:xlink="http://www.w3.org/1999/xlink">
    <title>trustpilot-vector-logo 2</title>
    <g id="Pages" stroke="none" stroke-width="1" fill="none" fill-rule="evenodd">
        <g id="trustpilot-vector-logo-2" fill-rule="nonzero">
            <g id="trustpilot-vector-logo">
                <path d="M26.7313033,8.87096774 L37.0609662,8.87096774 L37.0609662,10.7874563 L32.9937678,10.7874563 L32.9937678,21.5910247 L30.7644665,21.5910247 L30.7644665,10.7874563 L26.7142857,10.7874563 L26.7313033,8.87096774 L26.7313033,8.87096774 Z M36.6185094,12.3817035 L38.5244769,12.3817035 L38.5244769,14.1625114 L38.558512,14.1625114 C38.6265823,13.9081103 38.7457052,13.6706692 38.9158809,13.4332282 C39.0860566,13.1957871 39.2902674,12.9753061 39.5455309,12.7887453 C39.7837768,12.5852244 40.0560579,12.4325837 40.3623741,12.3138632 C40.6516727,12.1951426 40.9579889,12.1273023 41.2643051,12.1273023 C41.502551,12.1273023 41.6727267,12.1442624 41.7578145,12.1442624 C41.8429024,12.1612225 41.9450077,12.1781826 42.0300956,12.1781826 L42.0300956,14.1285913 C41.8939551,14.0946711 41.740797,14.0777111 41.5876389,14.060751 C41.4344808,14.0437909 41.2983402,14.0268308 41.1451821,14.0268308 C40.8048308,14.0268308 40.481497,14.0946711 40.1751808,14.2303518 C39.8688646,14.3660324 39.6136011,14.5695533 39.3753552,14.8239544 C39.1541268,15.0953156 38.9669336,15.4175571 38.8307931,15.8076388 C38.6946525,16.1977206 38.6265823,16.6556426 38.6265823,17.1644449 L38.6265823,21.5401445 L36.5844743,21.5401445 L36.6185094,12.3817035 L36.6185094,12.3817035 Z M51.3897572,21.5910247 L49.3816843,21.5910247 L49.3816843,20.302059 L49.3476492,20.302059 C49.0923857,20.7769411 48.7179992,21.1331027 48.2244898,21.421424 C47.7309804,21.7097453 47.2204534,21.8454259 46.7099264,21.8454259 C45.5016792,21.8454259 44.6167657,21.5571046 44.0722036,20.9465418 C43.5276414,20.3529392 43.2553604,19.4370951 43.2553604,18.2329297 L43.2553604,12.3817035 L45.2974684,12.3817035 L45.2974684,18.0294088 C45.2974684,18.8434924 45.4506265,19.420135 45.7739602,19.7423764 C46.0802764,20.081578 46.5227331,20.2511787 47.0843128,20.2511787 C47.509752,20.2511787 47.8671209,20.1833384 48.1564195,20.0476578 C48.4457182,19.9119772 48.6839641,19.7423764 48.8541398,19.5218955 C49.041333,19.3014145 49.160456,19.0300533 49.2455438,18.7247719 C49.3306316,18.4194905 49.3646668,18.080289 49.3646668,17.7241274 L49.3646668,12.3817035 L51.4067747,12.3817035 L51.4067747,21.5910247 L51.3897572,21.5910247 Z M54.8613407,18.6399715 C54.929411,19.2335742 55.1506394,19.640616 55.5420434,19.8950171 C55.9334474,20.1324582 56.4099393,20.2511787 56.9545014,20.2511787 C57.1416947,20.2511787 57.362923,20.2342186 57.6011689,20.2002985 C57.8394149,20.1663783 58.0776608,20.1154981 58.2818716,20.0306977 C58.5031,19.9458974 58.6732756,19.8271768 58.8094162,19.6575761 C58.9455567,19.4879753 59.013627,19.2844544 58.9966094,19.0300533 C58.9795918,18.7756521 58.894504,18.5551711 58.7073108,18.3855704 C58.5201175,18.2159696 58.2988892,18.0972491 58.0266081,17.9785285 C57.754327,17.8767681 57.4309933,17.7919677 57.0736244,17.7241274 C56.7162555,17.6562871 56.3588866,17.5714867 55.9845001,17.4866863 C55.6101137,17.401886 55.2357272,17.3001255 54.8783583,17.181405 C54.5209894,17.0626844 54.2146732,16.9100438 53.9253746,16.6895628 C53.6530935,16.4860419 53.4148476,16.2316407 53.2616895,15.9093993 C53.0915138,15.5871578 53.006426,15.2140362 53.006426,14.739154 C53.006426,14.2303518 53.125549,13.8233099 53.3808125,13.4841084 C53.6190584,13.1449069 53.9423921,12.8735457 54.3167786,12.6700248 C54.6911651,12.4665038 55.1166042,12.3138632 55.5760785,12.2290628 C56.0355528,12.1442624 56.4780096,12.1103423 56.8864312,12.1103423 C57.362923,12.1103423 57.8223973,12.1612225 58.2478365,12.2629829 C58.6732756,12.3647434 59.0816972,12.5173841 59.4220486,12.7548251 C59.7794175,12.9753061 60.0687161,13.2805875 60.2899445,13.6367491 C60.5281904,13.9929107 60.6643309,14.4338727 60.7324012,14.9426749 L58.6052054,14.9426749 C58.5031,14.4508327 58.2818716,14.1285913 57.9415203,13.9589905 C57.5841514,13.7893898 57.1927474,13.7045894 56.7332731,13.7045894 C56.5971325,13.7045894 56.4099393,13.7215495 56.2227461,13.7385095 C56.0185353,13.7724297 55.8483596,13.8063499 55.6611664,13.8741902 C55.4909907,13.9420305 55.3378326,14.0437909 55.2187096,14.1625114 C55.0995867,14.281232 55.0315164,14.4508327 55.0315164,14.6543537 C55.0315164,14.9087548 55.1166042,15.0953156 55.2867799,15.2479563 C55.4569556,15.400597 55.6781839,15.5193175 55.9674826,15.6380381 C56.2397636,15.7397985 56.5630974,15.8245989 56.9204663,15.8924392 C57.2778352,15.9602795 57.6522216,16.0450799 58.0266081,16.1298803 C58.4009946,16.2146806 58.7583635,16.3164411 59.1157324,16.4351616 C59.4731013,16.5538822 59.796435,16.7065228 60.0687161,16.9270038 C60.3409972,17.1305247 60.5792431,17.3849259 60.7494188,17.6902073 C60.9195944,17.9954886 61.0046823,18.3855704 61.0046823,18.8265323 C61.0046823,19.3692548 60.8855593,19.8271768 60.6302958,20.2172586 C60.3750323,20.5903802 60.0516985,20.9126217 59.6602945,21.1500628 C59.2688905,21.3875038 58.8094162,21.5571046 58.3329243,21.6758251 C57.8394149,21.7775856 57.362923,21.8454259 56.8864312,21.8454259 C56.3078339,21.8454259 55.7632718,21.7775856 55.2697623,21.641905 C54.7762529,21.5062243 54.3337962,21.3027034 53.9764273,21.0483023 C53.6190584,20.7769411 53.3297598,20.4546996 53.125549,20.0476578 C52.9213382,19.6575761 52.8022152,19.1826939 52.7851976,18.6230114 L54.8443232,18.6230114 L54.8443232,18.6399715 L54.8613407,18.6399715 Z M61.5832795,12.3817035 L63.1318781,12.3817035 L63.1318781,9.60025101 L65.1739861,9.60025101 L65.1739861,12.3647434 L67.0118832,12.3647434 L67.0118832,13.8741902 L65.1739861,13.8741902 L65.1739861,18.7926122 C65.1739861,19.0130932 65.1910036,19.1826939 65.2080212,19.3522947 C65.2250387,19.5049354 65.2760914,19.640616 65.3271441,19.7423764 C65.3952144,19.8441369 65.4973198,19.9289373 65.6164428,19.9798175 C65.7525833,20.0306977 65.922759,20.0646179 66.1610049,20.0646179 C66.2971454,20.0646179 66.4503035,20.0646179 66.5864441,20.0476578 C66.7225846,20.0306977 66.8757427,20.0137377 67.0118832,19.9798175 L67.0118832,21.5571046 C66.7906549,21.5910247 66.5694265,21.6079848 66.3481981,21.6249449 C66.1269698,21.658865 65.922759,21.658865 65.684513,21.658865 C65.1399509,21.658865 64.7145118,21.6079848 64.391178,21.5062243 C64.0678442,21.4044639 63.8125807,21.2518232 63.6253875,21.0652624 C63.4381943,20.8617415 63.3190713,20.6243004 63.251001,20.3359791 C63.1829308,20.0476578 63.1488956,19.6914962 63.1318781,19.3183745 L63.1318781,13.8911502 L61.5832795,13.8911502 L61.5832795,12.3477833 L61.5832795,12.3477833 L61.5832795,12.3817035 Z M68.4413588,12.3817035 L70.3643438,12.3817035 L70.3643438,13.6367491 L70.398379,13.6367491 C70.6876776,13.0940267 71.0790816,12.720905 71.5896086,12.4834639 C72.1001356,12.2460229 72.6446978,12.1273023 73.2573301,12.1273023 C73.9890855,12.1273023 74.6187355,12.2460229 75.1632976,12.5173841 C75.7078597,12.7717852 76.1503165,13.1109867 76.5076854,13.5689088 C76.8650542,14.0098708 77.1373353,14.5356331 77.307511,15.1292358 C77.4776866,15.7228384 77.579792,16.3673213 77.579792,17.0287643 C77.579792,17.6562871 77.4947042,18.2498898 77.3415461,18.8265323 C77.1713704,19.4031749 76.9331245,19.9289373 76.6097908,20.3698993 C76.286457,20.8108612 75.8780354,21.1670228 75.3675084,21.438384 C74.8569814,21.7097453 74.2783841,21.8454259 73.5976815,21.8454259 C73.3083828,21.8454259 73.0020666,21.8115057 72.712768,21.7606255 C72.4234694,21.7097453 72.1341708,21.6249449 71.8618897,21.5062243 C71.5896086,21.3875038 71.3343451,21.2348631 71.1131168,21.0483023 C70.8748708,20.8617415 70.6876776,20.6412605 70.5345195,20.4038194 L70.5004844,20.4038194 L70.5004844,25 L68.4583764,25 L68.4583764,12.3817035 L68.4413588,12.3817035 Z M75.5717192,16.9948441 C75.5717192,16.5878023 75.5206665,16.1807605 75.4015435,15.7906787 C75.2994381,15.400597 75.1292625,15.0613955 74.9080341,14.7561141 C74.6868057,14.4508327 74.4145247,14.2133917 74.1082085,14.0268308 C73.7848747,13.84027 73.4104882,13.7554696 73.0020666,13.7554696 C72.1511883,13.7554696 71.5045208,14.0437909 71.0620641,14.6373936 C70.6366249,15.2309962 70.4153965,16.0281198 70.4153965,17.0118042 C70.4153965,17.4866863 70.4664492,17.9106882 70.5855722,18.30077 C70.7046952,18.6908517 70.8578533,19.0300533 71.0960992,19.3183745 C71.3173276,19.6066958 71.5896086,19.8271768 71.9129424,19.9967776 C72.2362762,20.1663783 72.5936451,20.2511787 73.0190842,20.2511787 C73.4955761,20.2511787 73.8699625,20.1494183 74.1932963,19.9628574 C74.5166301,19.7762966 74.7718936,19.5218955 74.9931219,19.2335742 C75.1973327,18.9282928 75.3504908,18.5890913 75.4355787,18.1990095 C75.5206665,17.7919677 75.5717192,17.401886 75.5717192,16.9948441 L75.5717192,16.9948441 Z M79.1624257,8.87096774 L81.2045337,8.87096774 L81.2045337,10.7874563 L79.1624257,10.7874563 C79.1624257,10.7874563 79.1624257,8.87096774 79.1624257,8.87096774 Z M79.1624257,12.3817035 L81.2045337,12.3817035 L81.2045337,21.5910247 L79.1624257,21.5910247 L79.1624257,12.3817035 L79.1624257,12.3817035 Z M83.0254133,8.87096774 L85.0675213,8.87096774 L85.0675213,21.5910247 L83.0254133,21.5910247 L83.0254133,8.87096774 L83.0254133,8.87096774 Z M91.2959507,21.8454259 C90.5641953,21.8454259 89.9005102,21.7267053 89.3219129,21.4723042 C88.7433157,21.2179031 88.2668238,20.8956616 87.8584022,20.4716597 C87.4669982,20.0476578 87.160682,19.5218955 86.9564712,18.9282928 C86.7522604,18.3346901 86.6331374,17.6732472 86.6331374,16.9778841 C86.6331374,16.2825209 86.7352428,15.6380381 86.9564712,15.0444354 C87.160682,14.4508327 87.4669982,13.9420305 87.8584022,13.5010685 C88.2498063,13.0770666 88.7433157,12.7378651 89.3219129,12.500424 C89.9005102,12.2629829 90.5641953,12.1273023 91.2959507,12.1273023 C92.027706,12.1273023 92.6913911,12.2460229 93.2699884,12.500424 C93.8485856,12.7378651 94.3250775,13.0770666 94.7334991,13.5010685 C95.1249031,13.9250704 95.4312193,14.4508327 95.6354301,15.0444354 C95.8396409,15.6380381 95.9587639,16.2825209 95.9587639,16.9778841 C95.9587639,17.6902073 95.8566585,18.3346901 95.6354301,18.9282928 C95.4142018,19.5218955 95.1249031,20.0306977 94.7334991,20.4716597 C94.3420951,20.8956616 93.8485856,21.2348631 93.2699884,21.4723042 C92.6913911,21.7097453 92.0447236,21.8454259 91.2959507,21.8454259 L91.2959507,21.8454259 Z M91.2959507,20.2342186 C91.7384074,20.2342186 92.146829,20.1324582 92.4701627,19.9458974 C92.8105141,19.7593365 93.0657776,19.5049354 93.2870059,19.199654 C93.5082343,18.8943726 93.6613924,18.5382111 93.7634978,18.1650894 C93.8656032,17.7750076 93.9166559,17.3849259 93.9166559,16.9778841 C93.9166559,16.5878023 93.8656032,16.1977206 93.7634978,15.8076388 C93.6613924,15.4175571 93.5082343,15.0783556 93.2870059,14.7730742 C93.0657776,14.4677928 92.7934965,14.2303518 92.4701627,14.0437909 C92.1298114,13.8572301 91.7384074,13.7554696 91.2959507,13.7554696 C90.8534939,13.7554696 90.4450723,13.8572301 90.1217386,14.0437909 C89.7813872,14.2303518 89.5261237,14.4847529 89.3048954,14.7730742 C89.083667,15.0783556 88.9305089,15.4175571 88.8284035,15.8076388 C88.7262981,16.1977206 88.6752454,16.5878023 88.6752454,16.9778841 C88.6752454,17.3849259 88.7262981,17.7750076 88.8284035,18.1650894 C88.9305089,18.5551711 89.083667,18.8943726 89.3048954,19.199654 C89.5261237,19.5049354 89.7984048,19.7593365 90.1217386,19.9458974 C90.4620899,20.1494183 90.8534939,20.2342186 91.2959507,20.2342186 L91.2959507,20.2342186 Z M96.5713963,12.3817035 L98.1199948,12.3817035 L98.1199948,9.60025101 L100.162103,9.60025101 L100.162103,12.3647434 L102,12.3647434 L102,13.8741902 L100.162103,13.8741902 L100.162103,18.7926122 C100.162103,19.0130932 100.17912,19.1826939 100.196138,19.3522947 C100.213156,19.5049354 100.264208,19.640616 100.315261,19.7423764 C100.383331,19.8441369 100.485437,19.9289373 100.60456,19.9798175 C100.7407,20.0306977 100.910876,20.0646179 101.149122,20.0646179 C101.285262,20.0646179 101.43842,20.0646179 101.574561,20.0476578 C101.710701,20.0306977 101.863859,20.0137377 102,19.9798175 L102,21.5571046 C101.778772,21.5910247 101.557543,21.6079848 101.336315,21.6249449 C101.115087,21.658865 100.910876,21.658865 100.67263,21.658865 C100.128068,21.658865 99.7026285,21.6079848 99.3792948,21.5062243 C99.055961,21.4044639 98.8006975,21.2518232 98.6135043,21.0652624 C98.426311,20.8617415 98.3071881,20.6243004 98.2391178,20.3359791 C98.1710475,20.0476578 98.1370124,19.6914962 98.1199948,19.3183745 L98.1199948,13.8911502 L96.5713963,13.8911502 L96.5713963,12.3477833 L96.5713963,12.3477833 L96.5713963,12.3817035 Z" id="Shape" fill="#FFFFFF"></path>
                <polygon id="Path" fill="#00B67A" points="24.2857143 8.93708969 15.007456 8.93708969 12.1513073 0 9.27825828 8.93708969 0 8.91996883 7.503728 14.4500071 4.63067899 23.3870968 12.134407 17.8570585 19.638135 23.3870968 16.7819863 14.4500071"></polygon>
                <polygon id="Path" fill="#005128" points="17 15.6224672 16.4084249 13.7096774 12.1428571 16.9354839"></polygon>
            </g>
        </g>
    </g>
</svg>