<?xml version="1.0" encoding="UTF-8"?>
<svg width="183px" height="48px" viewBox="0 0 183 48" version="1.1" xmlns="http://www.w3.org/2000/svg" xmlns:xlink="http://www.w3.org/1999/xlink">
    <title>Group</title>
    <g id="Symbols" stroke="none" stroke-width="1" fill="none" fill-rule="evenodd">
        <g id="Group">
            <g id="TutorShip." transform="translate(41.390000, 17.111818)" fill-rule="nonzero">
                <path d="M9.78,21.57 L9.78,4.53 L15.45,4.53 L15.45,0.57 L-6.53699317e-13,0.57 L-6.53699317e-13,4.53 L5.64,4.53 L5.64,21.57 L9.78,21.57 Z M23.01,21.99 C25.05,21.99 26.54,21.29 27.48,19.89 L27.48,19.89 L27.48,21.57 L31.35,21.57 L31.35,6.57 L27.48,6.57 L27.48,14.67 C27.48,15.91 27.18,16.84 26.58,17.46 C25.98,18.08 25.18,18.39 24.18,18.39 C23.28,18.39 22.56,18.125 22.02,17.595 C21.48,17.065 21.21,16.3 21.21,15.3 L21.21,15.3 L21.21,6.57 L17.34,6.57 L17.34,15.78 C17.34,17.72 17.875,19.24 18.945,20.34 C20.015,21.44 21.37,21.99 23.01,21.99 Z M37.845,20.82 C38.935,21.62 40.81,21.87 43.47,21.57 L43.47,21.57 L43.47,18.06 C42.73,18.1 42.11,18.105 41.61,18.075 C41.11,18.045 40.73,17.91 40.47,17.67 C40.21,17.43 40.08,17.05 40.08,16.53 L40.08,16.53 L40.08,10.29 L43.47,10.29 L43.47,6.57 L40.08,6.57 L40.08,2.37 L36.21,3.54 L36.21,6.57 L33.6,6.57 L33.6,10.29 L36.21,10.29 L36.21,16.53 C36.21,18.59 36.755,20.02 37.845,20.82 Z M53.58,21.99 C55.8,21.99 57.68,21.23 59.22,19.71 C60.76,18.17 61.53,16.29 61.53,14.07 C61.53,11.85 60.76,9.975 59.22,8.445 C57.68,6.915 55.8,6.15 53.58,6.15 C51.36,6.15 49.485,6.915 47.955,8.445 C46.425,9.975 45.66,11.85 45.66,14.07 C45.66,16.29 46.425,18.165 47.955,19.695 C49.485,21.225 51.36,21.99 53.58,21.99 Z M53.58,18.21 C52.42,18.21 51.45,17.82 50.67,17.04 C49.91,16.26 49.53,15.27 49.53,14.07 C49.53,12.87 49.915,11.88 50.685,11.1 C51.455,10.32 52.42,9.93 53.58,9.93 C54.74,9.93 55.71,10.32 56.49,11.1 C57.27,11.88 57.66,12.87 57.66,14.07 C57.66,15.27 57.27,16.26 56.49,17.04 C55.71,17.82 54.74,18.21 53.58,18.21 Z M68.13,21.57 L68.13,14.4 C68.13,12.96 68.595,11.93 69.525,11.31 C70.455,10.69 71.51,10.45 72.69,10.59 L72.69,10.59 L72.69,6.27 C71.67,6.27 70.745,6.51 69.915,6.99 C69.085,7.47 68.49,8.19 68.13,9.15 L68.13,9.15 L68.13,6.57 L64.26,6.57 L64.26,21.57 L68.13,21.57 Z" id="Tutor" fill="#FFFFFF"></path>
                <path d="M82.29,21.99 C84.55,21.99 86.385,21.42 87.795,20.28 C89.205,19.14 89.91,17.6 89.91,15.66 C89.91,15.06 89.835,14.505 89.685,13.995 C89.535,13.485 89.355,13.05 89.145,12.69 C88.935,12.33 88.63,11.98 88.23,11.64 C87.83,11.3 87.475,11.03 87.165,10.83 C86.855,10.63 86.415,10.415 85.845,10.185 C85.275,9.955 84.825,9.785 84.495,9.675 C84.165,9.565 83.68,9.41 83.04,9.21 C81.48,8.73 80.425,8.285 79.875,7.875 C79.325,7.465 79.05,6.93 79.05,6.27 C79.05,5.65 79.295,5.145 79.785,4.755 C80.275,4.365 80.95,4.17 81.81,4.17 C83.65,4.17 84.99,5.07 85.83,6.87 L85.83,6.87 L89.31,4.86 C88.59,3.38 87.585,2.225 86.295,1.395 C85.005,0.565 83.51,0.15 81.81,0.15 C79.91,0.15 78.285,0.715 76.935,1.845 C75.585,2.975 74.91,4.49 74.91,6.39 C74.91,7.35 75.08,8.19 75.42,8.91 C75.76,9.63 76.255,10.225 76.905,10.695 C77.555,11.165 78.205,11.54 78.855,11.82 C79.505,12.1 80.3,12.38 81.24,12.66 C82.94,13.14 84.12,13.585 84.78,13.995 C85.44,14.405 85.77,14.98 85.77,15.72 C85.77,16.36 85.5,16.89 84.96,17.31 C84.42,17.73 83.57,17.94 82.41,17.94 C80.01,17.94 78.4,16.87 77.58,14.73 L77.58,14.73 L74.04,16.8 C74.62,18.4 75.62,19.665 77.04,20.595 C78.46,21.525 80.21,21.99 82.29,21.99 Z M96.3,21.57 L96.3,13.47 C96.3,12.23 96.6,11.3 97.2,10.68 C97.8,10.06 98.6,9.75 99.6,9.75 C100.5,9.75 101.22,10.015 101.76,10.545 C102.3,11.075 102.57,11.84 102.57,12.84 L102.57,12.84 L102.57,21.57 L106.44,21.57 L106.44,12.36 C106.44,10.42 105.905,8.9 104.835,7.8 C103.765,6.7 102.41,6.15 100.77,6.15 C98.73,6.15 97.24,6.85 96.3,8.25 L96.3,8.25 L96.3,0.57 L92.43,0.57 L92.43,21.57 L96.3,21.57 Z M111.66,4.77 C112.32,4.77 112.885,4.535 113.355,4.065 C113.825,3.595 114.06,3.04 114.06,2.4 C114.06,1.76 113.825,1.2 113.355,0.72 C112.885,0.24 112.32,0 111.66,0 C111.02,0 110.465,0.24 109.995,0.72 C109.525,1.2 109.29,1.76 109.29,2.4 C109.29,3.04 109.525,3.595 109.995,4.065 C110.465,4.535 111.02,4.77 111.66,4.77 Z M113.61,21.57 L113.61,6.57 L109.74,6.57 L109.74,21.57 L113.61,21.57 Z M121.02,27.57 L121.02,19.8 C122.16,21.26 123.78,21.99 125.88,21.99 C127.9,21.99 129.625,21.225 131.055,19.695 C132.485,18.165 133.2,16.29 133.2,14.07 C133.2,11.85 132.485,9.975 131.055,8.445 C129.625,6.915 127.9,6.15 125.88,6.15 C123.78,6.15 122.16,6.88 121.02,8.34 L121.02,8.34 L121.02,6.57 L117.15,6.57 L117.15,27.57 L121.02,27.57 Z M125.16,18.3 C123.96,18.3 122.97,17.91 122.19,17.13 C121.41,16.33 121.02,15.31 121.02,14.07 C121.02,12.83 121.41,11.815 122.19,11.025 C122.97,10.235 123.96,9.84 125.16,9.84 C126.36,9.84 127.355,10.235 128.145,11.025 C128.935,11.815 129.33,12.83 129.33,14.07 C129.33,15.31 128.935,16.325 128.145,17.115 C127.355,17.905 126.36,18.3 125.16,18.3 Z M138.18,21.96 C138.88,21.96 139.48,21.71 139.98,21.21 C140.48,20.71 140.73,20.11 140.73,19.41 C140.73,18.71 140.48,18.11 139.98,17.61 C139.48,17.11 138.88,16.86 138.18,16.86 C137.48,16.86 136.88,17.11 136.38,17.61 C135.88,18.11 135.63,18.71 135.63,19.41 C135.63,20.11 135.88,20.71 136.38,21.21 C136.88,21.71 137.48,21.96 138.18,21.96 Z" id="Ship." fill="#FCBC14"></path>
            </g>
            <g id="Group-7">
                <path d="M3.7574727,31.0900306 C3.69154108,30.9544929 3.62483834,30.8197548 3.56199124,30.6818182 C0.247288943,34.5016629 -0.982277841,41.5772115 0.851854862,46.2598597 C0.882700062,46.3394232 0.917400912,46.4157881 0.954800717,46.4897541 C1.66231249,47.8743178 3.51456675,48.0746258 4.59222092,46.9759307 L5.40190742,46.1507099 C6.38394148,45.1491701 7.74267254,43.7230254 9,43.254041 C7.71182734,41.8079055 5.8009672,38.5218155 3.7574727,31.0900306" id="Fill-1" fill="#FCBC14"></path>
                <path d="M25.2421417,31.0900306 C25.3080734,30.9544929 25.3751617,30.8197548 25.4380088,30.6818182 C28.7527111,34.5016629 29.9822778,41.5772115 28.1481451,46.2598597 C28.1169144,46.3394232 28.0825991,46.4157881 28.0451993,46.4897541 C27.3376875,47.8743178 25.4854333,48.0746258 24.4077791,46.9759307 L23.5980926,46.1507099 C22.6160585,45.1491701 21.2569419,43.7230254 20,43.254041 C21.2881727,41.8079055 23.1986472,38.5218155 25.2421417,31.0900306" id="Fill-3" fill="#FCBC14"></path>
                <path d="M14.5,21.9761814 C13.1607021,21.9761814 12.0744681,19.7327576 12.0744681,16.965743 C12.0744681,14.1987284 13.1607021,11.9553046 14.5,11.9553046 C15.8392979,11.9553046 16.9255319,14.1987284 16.9255319,16.965743 C16.9255319,19.7327576 15.8392979,21.9761814 14.5,21.9761814 M24,22.8112545 C24,10.5895426 16.7234043,0.681818182 14.5,0.681818182 C12.2765957,0.681818182 5,10.5895426 5,22.8112545 C5,24.9298349 5.13219149,26.9753464 5.37110638,28.9152211 C5.39738298,29.1177263 5.42648936,29.3273297 5.45802128,29.542361 C5.68480851,31.0901689 6.04823404,32.9089581 6.62348936,34.462194 C6.64370213,34.5168913 8.67629787,40.4609414 10.7699362,43.0588537 C10.7699362,43.0588537 11.3520638,43.6935092 11.5998723,43.8784779 C11.6750638,43.9348453 11.7502553,43.9912128 11.8266596,44.0434048 C11.9062979,44.097267 11.9859362,44.148624 12.0667872,44.1983109 C12.1605745,44.2559309 12.2543617,44.3097931 12.3493617,44.3611501 C12.4164681,44.3970583 12.4831702,44.4346366 12.5506809,44.4676219 C12.7067234,44.5440311 12.8647872,44.6133422 13.0240638,44.6709622 C13.0321489,44.673885 13.0406383,44.6788954 13.0487234,44.6818182 C13.0810638,41.7102107 13.2540851,33.5782691 14.1858936,32.079313 C14.2821064,31.9244069 14.3868085,31.8404821 14.5,31.8404821 C14.6131915,31.8404821 14.7178936,31.9244069 14.8141064,32.079313 C15.7459149,33.5782691 15.9189362,41.7102107 15.9512766,44.6818182 C15.9593617,44.6788954 15.9678511,44.673885 15.9759362,44.6709622 C16.1352128,44.6133422 16.2932766,44.5440311 16.4493191,44.4676219 C16.5168298,44.4346366 16.5835319,44.3970583 16.6506383,44.3611501 C16.7456383,44.3097931 16.8394255,44.2559309 16.9332128,44.1983109 C17.0140638,44.148624 17.0937021,44.097267 17.1733404,44.0434048 C17.2497447,43.9912128 17.3249362,43.9348453 17.4001277,43.8784779 C17.6479362,43.6935092 18.2300638,43.0588537 18.2300638,43.0588537 C20.3237021,40.4609414 22.3562979,34.5168913 22.3765106,34.462194 C22.951766,32.9089581 23.3151915,31.0901689 23.5419787,29.542361 C23.5735106,29.3273297 23.602617,29.1177263 23.6288936,28.9152211 C23.8678085,26.9753464 24,24.9298349 24,22.8112545" id="Fill-5" fill="#7E67E9"></path>
            </g>
        </g>
    </g>
</svg>