<?xml version="1.0" encoding="UTF-8"?>
<svg width="274px" height="71px" viewBox="0 0 274 71" version="1.1" xmlns="http://www.w3.org/2000/svg" xmlns:xlink="http://www.w3.org/1999/xlink">
    <!-- Generator: Sketch 63.1 (92452) - https://sketch.com -->
    <title>Group 3 Copy</title>
    <desc>Created with Sketch.</desc>
    <g id="Pages" stroke="none" stroke-width="1" fill="none" fill-rule="evenodd">
        <g id="Group-3-Copy">
            <g id="TutorShip." transform="translate(62.085000, 25.167727)" fill-rule="nonzero">
                <path d="M14.67,32.355 L14.67,6.795 L23.175,6.795 L23.175,0.855 L1.74793513e-12,0.855 L1.74793513e-12,6.795 L8.46,6.795 L8.46,32.355 L14.67,32.355 Z M34.515,32.985 C37.575,32.985 39.81,31.935 41.22,29.835 L41.22,29.835 L41.22,32.355 L47.025,32.355 L47.025,9.855 L41.22,9.855 L41.22,22.005 C41.22,23.865 40.77,25.26 39.87,26.19 C38.97,27.12 37.77,27.585 36.27,27.585 C34.92,27.585 33.84,27.1875 33.03,26.3925 C32.22,25.5975 31.815,24.45 31.815,22.95 L31.815,22.95 L31.815,9.855 L26.01,9.855 L26.01,23.67 C26.01,26.58 26.8125,28.86 28.4175,30.51 C30.0225,32.16 32.055,32.985 34.515,32.985 Z M56.7675,31.23 C58.4025,32.43 61.215,32.805 65.205,32.355 L65.205,32.355 L65.205,27.09 C64.095,27.15 63.165,27.1575 62.415,27.1125 C61.665,27.0675 61.095,26.865 60.705,26.505 C60.315,26.145 60.12,25.575 60.12,24.795 L60.12,24.795 L60.12,15.435 L65.205,15.435 L65.205,9.855 L60.12,9.855 L60.12,3.555 L54.315,5.31 L54.315,9.855 L50.4,9.855 L50.4,15.435 L54.315,15.435 L54.315,24.795 C54.315,27.885 55.1325,30.03 56.7675,31.23 Z M80.37,32.985 C83.7,32.985 86.52,31.845 88.83,29.565 C91.14,27.255 92.295,24.435 92.295,21.105 C92.295,17.775 91.14,14.9625 88.83,12.6675 C86.52,10.3725 83.7,9.225 80.37,9.225 C77.04,9.225 74.2275,10.3725 71.9325,12.6675 C69.6375,14.9625 68.49,17.775 68.49,21.105 C68.49,24.435 69.6375,27.2475 71.9325,29.5425 C74.2275,31.8375 77.04,32.985 80.37,32.985 Z M80.37,27.315 C78.63,27.315 77.175,26.73 76.005,25.56 C74.865,24.39 74.295,22.905 74.295,21.105 C74.295,19.305 74.8725,17.82 76.0275,16.65 C77.1825,15.48 78.63,14.895 80.37,14.895 C82.11,14.895 83.565,15.48 84.735,16.65 C85.905,17.82 86.49,19.305 86.49,21.105 C86.49,22.905 85.905,24.39 84.735,25.56 C83.565,26.73 82.11,27.315 80.37,27.315 Z M102.195,32.355 L102.195,21.6 C102.195,19.44 102.8925,17.895 104.2875,16.965 C105.6825,16.035 107.265,15.675 109.035,15.885 L109.035,15.885 L109.035,9.405 C107.505,9.405 106.1175,9.765 104.8725,10.485 C103.6275,11.205 102.735,12.285 102.195,13.725 L102.195,13.725 L102.195,9.855 L96.39,9.855 L96.39,32.355 L102.195,32.355 Z" id="Tutor" fill="#3D1EAE"></path>
                <path d="M123.435,32.985 C126.825,32.985 129.5775,32.13 131.6925,30.42 C133.8075,28.71 134.865,26.4 134.865,23.49 C134.865,22.59 134.7525,21.7575 134.5275,20.9925 C134.3025,20.2275 134.0325,19.575 133.7175,19.035 C133.4025,18.495 132.945,17.97 132.345,17.46 C131.745,16.95 131.2125,16.545 130.7475,16.245 C130.2825,15.945 129.6225,15.6225 128.7675,15.2775 C127.9125,14.9325 127.2375,14.6775 126.7425,14.5125 C126.2475,14.3475 125.52,14.115 124.56,13.815 C122.22,13.095 120.6375,12.4275 119.8125,11.8125 C118.9875,11.1975 118.575,10.395 118.575,9.405 C118.575,8.475 118.9425,7.7175 119.6775,7.1325 C120.4125,6.5475 121.425,6.255 122.715,6.255 C125.475,6.255 127.485,7.605 128.745,10.305 L128.745,10.305 L133.965,7.29 C132.885,5.07 131.3775,3.3375 129.4425,2.0925 C127.5075,0.8475 125.265,0.225 122.715,0.225 C119.865,0.225 117.4275,1.0725 115.4025,2.7675 C113.3775,4.4625 112.365,6.735 112.365,9.585 C112.365,11.025 112.62,12.285 113.13,13.365 C113.64,14.445 114.3825,15.3375 115.3575,16.0425 C116.3325,16.7475 117.3075,17.31 118.2825,17.73 C119.2575,18.15 120.45,18.57 121.86,18.99 C124.41,19.71 126.18,20.3775 127.17,20.9925 C128.16,21.6075 128.655,22.47 128.655,23.58 C128.655,24.54 128.25,25.335 127.44,25.965 C126.63,26.595 125.355,26.91 123.615,26.91 C120.015,26.91 117.6,25.305 116.37,22.095 L116.37,22.095 L111.06,25.2 C111.93,27.6 113.43,29.4975 115.56,30.8925 C117.69,32.2875 120.315,32.985 123.435,32.985 Z M144.45,32.355 L144.45,20.205 C144.45,18.345 144.9,16.95 145.8,16.02 C146.7,15.09 147.9,14.625 149.4,14.625 C150.75,14.625 151.83,15.0225 152.64,15.8175 C153.45,16.6125 153.855,17.76 153.855,19.26 L153.855,19.26 L153.855,32.355 L159.66,32.355 L159.66,18.54 C159.66,15.63 158.8575,13.35 157.2525,11.7 C155.6475,10.05 153.615,9.225 151.155,9.225 C148.095,9.225 145.86,10.275 144.45,12.375 L144.45,12.375 L144.45,0.855 L138.645,0.855 L138.645,32.355 L144.45,32.355 Z M167.49,7.155 C168.48,7.155 169.3275,6.8025 170.0325,6.0975 C170.7375,5.3925 171.09,4.56 171.09,3.6 C171.09,2.64 170.7375,1.8 170.0325,1.08 C169.3275,0.36 168.48,-1.42108547e-14 167.49,-1.42108547e-14 C166.53,-1.42108547e-14 165.6975,0.36 164.9925,1.08 C164.2875,1.8 163.935,2.64 163.935,3.6 C163.935,4.56 164.2875,5.3925 164.9925,6.0975 C165.6975,6.8025 166.53,7.155 167.49,7.155 Z M170.415,32.355 L170.415,9.855 L164.61,9.855 L164.61,32.355 L170.415,32.355 Z M181.53,41.355 L181.53,29.7 C183.24,31.89 185.67,32.985 188.82,32.985 C191.85,32.985 194.4375,31.8375 196.5825,29.5425 C198.7275,27.2475 199.8,24.435 199.8,21.105 C199.8,17.775 198.7275,14.9625 196.5825,12.6675 C194.4375,10.3725 191.85,9.225 188.82,9.225 C185.67,9.225 183.24,10.32 181.53,12.51 L181.53,12.51 L181.53,9.855 L175.725,9.855 L175.725,41.355 L181.53,41.355 Z M187.74,27.45 C185.94,27.45 184.455,26.865 183.285,25.695 C182.115,24.495 181.53,22.965 181.53,21.105 C181.53,19.245 182.115,17.7225 183.285,16.5375 C184.455,15.3525 185.94,14.76 187.74,14.76 C189.54,14.76 191.0325,15.3525 192.2175,16.5375 C193.4025,17.7225 193.995,19.245 193.995,21.105 C193.995,22.965 193.4025,24.4875 192.2175,25.6725 C191.0325,26.8575 189.54,27.45 187.74,27.45 Z M207.27,32.94 C208.32,32.94 209.22,32.565 209.97,31.815 C210.72,31.065 211.095,30.165 211.095,29.115 C211.095,28.065 210.72,27.165 209.97,26.415 C209.22,25.665 208.32,25.29 207.27,25.29 C206.22,25.29 205.32,25.665 204.57,26.415 C203.82,27.165 203.445,28.065 203.445,29.115 C203.445,30.165 203.82,31.065 204.57,31.815 C205.32,32.565 206.22,32.94 207.27,32.94 Z" id="Ship." fill="#FCBC14"></path>
            </g>
            <g id="Group-7">
                <path d="M5.63620905,45.6350459 C5.53731163,45.4317393 5.43725751,45.2296322 5.34298687,45.0227273 C0.370933414,50.7524943 -1.47341676,61.3658172 1.27778229,68.3897896 C1.32405009,68.5091347 1.37610137,68.6236821 1.43220108,68.7346311 C2.49346874,70.8114768 5.27185012,71.1119387 6.88833139,69.463896 L8.10286113,68.2260648 C9.57591222,66.7237552 11.6140088,64.5845382 13.5,63.8810614 C11.567741,61.7118582 8.7014508,56.7827233 5.63620905,45.6350459" id="Fill-1" fill="#FCBC14"></path>
                <path d="M37.8632126,45.6350459 C37.96211,45.4317393 38.0627425,45.2296322 38.1570131,45.0227273 C43.1290666,50.7524943 44.9734168,61.3658172 42.2222177,68.3897896 C42.1753716,68.5091347 42.1238986,68.6236821 42.0677989,68.7346311 C41.0065313,70.8114768 38.2281499,71.1119387 36.6116686,69.463896 L35.3971389,68.2260648 C33.9240878,66.7237552 31.8854128,64.5845382 30,63.8810614 C31.932259,61.7118582 34.7979709,56.7827233 37.8632126,45.6350459" id="Fill-3" fill="#FCBC14"></path>
                <path d="M21.75,31.9642722 C19.7410532,31.9642722 18.1117021,28.5991365 18.1117021,24.4486145 C18.1117021,20.2980926 19.7410532,16.9329569 21.75,16.9329569 C23.7589468,16.9329569 25.3882979,20.2980926 25.3882979,24.4486145 C25.3882979,28.5991365 23.7589468,31.9642722 21.75,31.9642722 M36,33.2168818 C36,14.8843139 25.0851064,0.0227272727 21.75,0.0227272727 C18.4148936,0.0227272727 7.5,14.8843139 7.5,33.2168818 C7.5,36.3947523 7.69828723,39.4630195 8.05665957,42.3728317 C8.09607447,42.6765895 8.13973404,42.9909945 8.18703191,43.3135415 C8.52721277,45.6352534 9.07235106,48.3634371 9.93523404,50.6932909 C9.96555319,50.7753369 13.0144468,59.691412 16.1549043,63.5882805 C16.1549043,63.5882805 17.0280957,64.5402638 17.3998085,64.8177168 C17.5125957,64.902268 17.625383,64.9868191 17.7399894,65.0651072 C17.8594468,65.1459006 17.9789043,65.222936 18.1001809,65.2974663 C18.2408617,65.3838964 18.3815426,65.4646897 18.5240426,65.5417252 C18.6247021,65.5955874 18.7247553,65.6519548 18.8260213,65.7014329 C19.0600851,65.8160467 19.2971809,65.9200133 19.5360957,66.0064433 C19.5482234,66.0108275 19.5609574,66.0183431 19.5730851,66.0227273 C19.6215957,61.565316 19.8811277,49.3674037 21.2788404,47.1189694 C21.4231596,46.8866104 21.5802128,46.7607231 21.75,46.7607231 C21.9197872,46.7607231 22.0768404,46.8866104 22.2211596,47.1189694 C23.6188723,49.3674037 23.8784043,61.565316 23.9269149,66.0227273 C23.9390426,66.0183431 23.9517766,66.0108275 23.9639043,66.0064433 C24.2028191,65.9200133 24.4399149,65.8160467 24.6739787,65.7014329 C24.7752447,65.6519548 24.8752979,65.5955874 24.9759574,65.5417252 C25.1184574,65.4646897 25.2591383,65.3838964 25.3998191,65.2974663 C25.5210957,65.222936 25.6405532,65.1459006 25.7600106,65.0651072 C25.874617,64.9868191 25.9874043,64.902268 26.1001915,64.8177168 C26.4719043,64.5402638 27.3450957,63.5882805 27.3450957,63.5882805 C30.4855532,59.691412 33.5344468,50.7753369 33.564766,50.6932909 C34.4276489,48.3634371 34.9727872,45.6352534 35.3129681,43.3135415 C35.360266,42.9909945 35.4039255,42.6765895 35.4433404,42.3728317 C35.8017128,39.4630195 36,36.3947523 36,33.2168818" id="Fill-5" fill="#7E67E9"></path>
            </g>
        </g>
    </g>
</svg>